<?xml version="1.0" encoding="UTF-8"?>
<svg id="Layer_2" xmlns="http://www.w3.org/2000/svg" viewBox="0 0 96.21 96.21">
  <defs>
    <style>
      .cls-1, .cls-2 {
        fill: #9EA0A7;
      }

      .cls-2 {
        opacity: 0;
      }
    </style>
  </defs>
  <g id="Icons_16px">
    <g id="customize">
      <rect class="cls-2" width="96.21" height="96.21"/>
      <path class="cls-1" d="M57.12,96.21c-8.29,0-15.03-6.74-15.03-15.03s6.74-15.03,15.03-15.03c6.4,0,11.88,4.02,14.04,9.66h20.23c2.66,0,4.81,2.15,4.81,4.81s-2.15,4.81-4.81,4.81h-19.85c-1.84,6.22-7.61,10.78-14.42,10.78ZM57.12,75.77c-2.98,0-5.41,2.43-5.41,5.41s2.43,5.41,5.41,5.41,5.41-2.43,5.41-5.41-2.43-5.41-5.41-5.41ZM26.37,85.43H4.81c-2.66,0-4.81-2.15-4.81-4.81s2.15-4.81,4.81-4.81h21.56c2.66,0,4.81,2.15,4.81,4.81s-2.15,4.81-4.81,4.81ZM27.06,66.14c-7.26,0-13.33-5.17-14.73-12.03h-7.52c-2.66,0-4.81-2.15-4.81-4.81s2.15-4.81,4.81-4.81h8.75c2.45-4.98,7.58-8.42,13.5-8.42,8.29,0,15.03,6.74,15.03,15.03s-6.74,15.03-15.03,15.03ZM27.06,45.7c-2.98,0-5.41,2.43-5.41,5.41s2.43,5.41,5.41,5.41,5.41-2.43,5.41-5.41-2.43-5.41-5.41-5.41ZM91.4,54.12h-32.34c-2.66,0-4.81-2.15-4.81-4.81s2.15-4.81,4.81-4.81h32.34c2.66,0,4.81,2.15,4.81,4.81s-2.15,4.81-4.81,4.81ZM69.15,30.07c-8.29,0-15.03-6.74-15.03-15.03S60.86,0,69.15,0c6.94,0,12.8,4.73,14.52,11.13h7.73c2.66,0,4.81,2.15,4.81,4.81s-2.15,4.81-4.81,4.81h-8.34c-2.25,5.46-7.64,9.32-13.9,9.32ZM69.15,9.62c-2.98,0-5.41,2.43-5.41,5.41s2.43,5.41,5.41,5.41,5.41-2.43,5.41-5.41-2.43-5.41-5.41-5.41ZM37.15,20.75H4.81c-2.66,0-4.81-2.15-4.81-4.81s2.15-4.81,4.81-4.81h32.34c2.66,0,4.81,2.15,4.81,4.81s-2.15,4.81-4.81,4.81Z"/>
    </g>
  </g>
</svg>