<?xml version="1.0" encoding="UTF-8"?>
<svg id="Layer_2" xmlns="http://www.w3.org/2000/svg" viewBox="0 0 96.21 96.21">
  <defs>
    <style>
      .cls-1, .cls-2 {
        fill: #F5C342;
      }

      .cls-2 {
        opacity: 0;
      }
    </style>
  </defs>
  <g id="Icons_16px">
    <g id="favorite">
      <rect class="cls-2" x="0" y="0" width="96.21" height="96.21"/>
      <path class="cls-1" d="M48.11,71.44c.81,0,1.62.2,2.35.61l18.25,10.22-3.7-21.44c-.26-1.5.21-3.03,1.26-4.13l15.21-15.97-21.07-3.01c-1.61-.23-3-1.26-3.69-2.75l-8.62-18.68-8.62,18.68c-.68,1.48-2.07,2.52-3.69,2.75l-21.07,3.01,15.21,15.97c1.05,1.1,1.52,2.64,1.26,4.13l-3.7,21.44,18.25-10.22c.73-.41,1.54-.61,2.35-.61Z"/>
      <path class="cls-1" d="M75.16,96.21c-.81,0-1.62-.2-2.35-.61l-24.71-13.84-24.71,13.84c-1.62.91-3.61.8-5.13-.27-1.51-1.07-2.28-2.92-1.96-4.75l5-29L1.33,40.6c-1.24-1.3-1.65-3.19-1.06-4.89.59-1.7,2.08-2.93,3.86-3.19l27.72-3.96L43.74,2.79c1.57-3.41,7.16-3.41,8.73,0l11.89,25.77,27.72,3.96c1.78.25,3.27,1.48,3.86,3.19.59,1.7.18,3.59-1.06,4.89l-19.98,20.98,5,29c.32,1.83-.45,3.67-1.96,4.75-.83.59-1.8.88-2.78.88ZM48.11,71.44c.81,0,1.62.2,2.35.61l18.25,10.22-3.7-21.44c-.26-1.5.21-3.03,1.26-4.13l15.21-15.97-21.07-3.01c-1.61-.23-3-1.26-3.69-2.75l-8.62-18.68-8.62,18.68c-.68,1.48-2.07,2.52-3.69,2.75l-21.07,3.01,15.21,15.97c1.05,1.1,1.52,2.64,1.26,4.13l-3.7,21.44,18.25-10.22c.73-.41,1.54-.61,2.35-.61Z"/>
    </g>
  </g>
</svg>