<?xml version="1.0" encoding="UTF-8"?>
<svg id="Layer_2" xmlns="http://www.w3.org/2000/svg" viewBox="0 0 96.21 96.21">
  <defs>
    <style>
      .cls-1, .cls-2 {
        fill: #9EA0A7;
      }

      .cls-2 {
        opacity: 0;
      }
    </style>
  </defs>
  <g id="Icons_16px">
    <g id="lightbulb">
      <rect class="cls-2" x="0" y="0" width="96.21" height="96.21"/>
      <path class="cls-1" d="M61.7,96.21h-27.14c-2.66,0-4.81-2.15-4.81-4.81s2.15-4.81,4.81-4.81h27.14c2.66,0,4.81,2.15,4.81,4.81s-2.15,4.81-4.81,4.81ZM34.56,78.44c-1.26,0-2.47-.49-3.37-1.38-.92-.9-1.44-2.14-1.44-3.43,0-8.64-3.91-13.53-8.43-19.19-4.35-5.45-9.29-11.63-9.29-21.11C12.03,15.57,28.94,0,48.22,0s35.96,15.65,35.96,33.49c0,9.56-5,15.7-9.42,21.12-4.47,5.5-8.34,10.24-8.34,18.55,0,2.62-2.1,4.76-4.73,4.81l-27.06.46s-.06,0-.08,0ZM39.37,73.63h.06-.06ZM48.22,9.62c-14.16,0-26.58,11.07-26.58,23.7,0,6.11,3.17,10.08,7.19,15.11,4.23,5.29,8.94,11.19,10.2,20.31l18.09-.31c1.26-8.93,5.96-14.7,10.17-19.88,4.05-4.98,7.26-8.92,7.26-15.05,0-12.72-12.31-23.87-26.34-23.87Z"/>
    </g>
  </g>
</svg>