<?xml version="1.0" encoding="UTF-8"?>
<svg id="Layer_2" xmlns="http://www.w3.org/2000/svg" width="800px" height="800px" viewBox="0 0 96.21 96.21">
  <defs>
    <style>
      .cls-1, .cls-2 {
        fill: #68AFF9;
      }

      .cls-2 {
        opacity: 0;
      }
    </style>
  </defs>
  <g id="Icons_16px">
    <g id="notification-2">
      <rect class="cls-2" x="0" y="0" width="96.21" height="96.21"/>
      <path class="cls-1" d="M91.4,96.21c-1.2,0-2.38-.45-3.29-1.3l-17.85-16.74H16.84c-9.28,0-16.84-7.55-16.84-16.84V16.84C0,7.55,7.55,0,16.84,0h62.54c9.28,0,16.84,7.55,16.84,16.84v74.56c0,1.92-1.14,3.65-2.9,4.41-.62.27-1.27.4-1.91.4ZM16.84,9.62c-3.98,0-7.22,3.24-7.22,7.22v44.5c0,3.98,3.24,7.22,7.22,7.22h55.32c1.22,0,2.4.47,3.29,1.3l11.14,10.45V16.84c0-3.98-3.24-7.22-7.22-7.22H16.84ZM49.31,51.71h-20.44c-2.66,0-4.81-2.15-4.81-4.81s2.15-4.81,4.81-4.81h20.44c2.66,0,4.81,2.15,4.81,4.81s-2.15,4.81-4.81,4.81ZM67.35,33.67H28.86c-2.66,0-4.81-2.15-4.81-4.81s2.15-4.81,4.81-4.81h38.48c2.66,0,4.81,2.15,4.81,4.81s-2.15,4.81-4.81,4.81Z"/>
    </g>
  </g>
</svg>