<?xml version="1.0" encoding="UTF-8"?>
<svg id="Layer_2" xmlns="http://www.w3.org/2000/svg" viewBox="0 0 96.21 96.21">
  <defs>
    <style>
      .cls-1, .cls-2 {
        fill: #9EA0A7;
      }

      .cls-2 {
        opacity: 0;
      }
    </style>
  </defs>
  <g id="Icons_16px">
    <g id="person-placeholder">
      <rect class="cls-2" x="0" y="0" width="96.21" height="96.21"/>
      <path class="cls-1" d="M79.37,90.2H16.84c-2.66,0-4.81-2.15-4.81-4.81v-6.01c0-13.88,8.15-25.9,19.92-31.5-4.85-4.4-7.9-10.75-7.9-17.8s3.12-13.82,8.55-18.4c5.45-4.59,12.67-6.51,19.81-5.28,9.77,1.75,17.73,9.72,19.38,19.39,1.23,7.14-.7,14.36-5.28,19.8-.69.82-1.44,1.59-2.22,2.31,11.76,5.61,19.9,17.62,19.9,31.49v6.01c0,2.66-2.15,4.81-4.81,4.81ZM21.65,80.58h52.92v-1.2c0-13.93-11.33-25.25-25.25-25.25h-2.41c-13.93,0-25.25,11.33-25.25,25.25v1.2ZM48.1,15.63c-3.42,0-6.66,1.17-9.31,3.39-3.26,2.74-5.12,6.77-5.12,11.04,0,7.96,6.47,14.43,14.43,14.43,4.27,0,8.3-1.87,11.04-5.12,2.8-3.32,3.92-7.57,3.16-11.98,0,0,0,0,0,0-.98-5.75-5.73-10.49-11.56-11.53-.89-.15-1.77-.23-2.64-.23Z"/>
    </g>
  </g>
</svg>