<?xml version="1.0" encoding="UTF-8"?>
<svg id="Layer_2" xmlns="http://www.w3.org/2000/svg" viewBox="0 0 96.22 96.21">
  <defs>
    <style>
      .cls-1, .cls-2 {
        fill: #E38100;
      }

      .cls-2 {
        opacity: 0;
      }
    </style>
  </defs>
  <g id="Icons_16px">
    <g id="business-objects-experience">
      <rect class="cls-2" width="96.21" height="96.21"/>
      <path class="cls-1" d="M39.69,52.91v32.47c0,2.65-2.16,4.81-4.81,4.81s-4.81-2.16-4.81-4.81v-32.47c0-2.65,2.16-4.81,4.81-4.81s4.81,2.16,4.81,4.81ZM4.81,72.16c-2.65,0-4.81,2.16-4.81,4.81v8.42c0,2.65,2.16,4.81,4.81,4.81s4.81-2.16,4.81-4.81v-8.42c0-2.65-2.16-4.81-4.81-4.81ZM61.34,60.13c-2.66,0-4.81,2.16-4.81,4.81v20.45c0,2.65,2.16,4.81,4.81,4.81s4.81-2.16,4.81-4.81v-20.45c0-2.65-2.16-4.81-4.81-4.81ZM88.99,42.09c-2.65,0-4.81,2.16-4.81,4.81v38.49c0,2.65,2.16,4.81,4.81,4.81s4.81-2.16,4.81-4.81v-38.49c0-2.65-2.16-4.81-4.81-4.81ZM92.92,20.87c3.63-2.71,4.37-7.88,1.65-11.53-2.72-3.64-7.88-4.4-11.51-1.69-2.57,1.92-3.61,5.06-3.09,8.02l-16.25,16.42c-1.99-.72-4.4-.59-6.29.31l-15.46-13.21c-.68-3.86-4.05-6.81-8.09-6.81-4.53,0-8.22,3.69-8.22,8.24,0,.24,0,.49.03.73l-17.18,22.29c-4.59-.16-8.5,3.6-8.5,8.24s3.69,8.26,8.22,8.26,8.22-3.71,8.22-8.26c0-.81-.12-1.59-.33-2.34l16.07-20.84c1.77.38,3.75.12,5.33-.67l15.33,13.09c.61,3.95,4.02,6.98,8.12,6.98,4.39,0,7.98-3.47,8.21-7.83l17.69-17.87c2.08.3,4.27-.18,6.07-1.53Z"/>
    </g>
  </g>
</svg>